# xmcd
#
# Track frame offsets: 
#        150
#        17372
#        34420
#        51458
#        67747
#        85944
#        101342
#        116077
#        132559
#        147016
#        164292
#        180722
#        197814
#        215752
#        230347
#        242798
#        257478
#        273386
#        286414
#        300778
#        315574
#        332717
#
# Disc length: 4670 seconds
#
# Revision: 0
# Processed by: cddbd v1.5.2PL0 Copyright (c) Steve Scherf et al.
# Submitted via: ExactAudioCopy v0.99pb4
#
DISCID=39123c16
DTITLE=Various Artist - MNM Big Hits 2011-1
DYEAR=2011
DGENRE=Top 40
TTITLE0=Jennifer Lopez Feat. Pitbull - On The Floor
TTITLE1=Adele - Rolling In The Deep
TTITLE2=Katy Perry - Firework
TTITLE3=Lady Gaga - Born This Way (Manhattan Clique Radio Edit)
TTITLE4=Rihanna - S&M
TTITLE5=Inna - Sun Is Up (Cahill Radio Edit)
TTITLE6=Milow - You And Me (In My Pocket)
TTITLE7=Black Eyed Peas - Just Can't Get Enough
TTITLE8=Alexandra Stan - Mr. Saxobeat
TTITLE9=Enrique Iglesias Feat. Ludacris and DJ Frank E - Tonight (I'm F*
TTITLE9=*kin' You)
TTITLE10=Avril Lavigne - What The Hell
TTITLE11=Usher - More
TTITLE12=Chris Brown - Yeah 3x
TTITLE13=Stromae - Je Cours
TTITLE14=David Guetta Feat. Rihanna - Who's That Chick?
TTITLE15=Milk Inc. - Fire
TTITLE16=P!nk - F**kin' Perfect
TTITLE17=Basto! - Gregory's Theme
TTITLE18=Martin Solveig and Dragonette - Hello
TTITLE19=DJ F.R.A.N.K - Discotex! (Yah!)
TTITLE20=Britney Spears - Hold It Against Me
TTITLE21=Stan Van Samang - King In My Head
EXTD=
EXTT0=
EXTT1=
EXTT2=
EXTT3=
EXTT4=
EXTT5=
EXTT6=
EXTT7=
EXTT8=
EXTT9=
EXTT10=
EXTT11=
EXTT12=
EXTT13=
EXTT14=
EXTT15=
EXTT16=
EXTT17=
EXTT18=
EXTT19=
EXTT20=
EXTT21=
PLAYORDER=
